# xmcd
#
# Track frame offsets:
#	150
#	13375
#	23775
#	39037
#	48325
#	63675
#	70362
#	81312
#	97800
#	108862
#	119812
#	134962
#	178557
#	188580
#	200475
#	217050
#	233020
#
# Disc length: 3245 seconds
#
# Revision: 3
# Processed by: cddbd v1.5.2PL0 Copyright (c) Steve Scherf et al.
# Submitted via: audiograbber 1.83.01
#
DISCID=f70cab11
DTITLE=Tammy Wynette - 24 Golden Greats
DYEAR=1998
DGENRE=Country
TTITLE0=My Man
TTITLE1=Another Chance
TTITLE2=Till I Make It On My Own
TTITLE3=Rocky Top
TTITLE4=Alive And Well
TTITLE5=Medley 1
TTITLE6=Making Love
TTITLE7=You And Me
TTITLE8=Take Me To Your World
TTITLE9=Womanhood
TTITLE10=Crying In The Rain
TTITLE11=Medley 2
TTITLE12=Fairy Tailes
TTITLE13=Stand By Your Man
TTITLE14=Medley 3
TTITLE15=Let's Call It A Day Today
TTITLE16=Heart Over Mind
EXTD=YEAR: 2000
EXTT0=
EXTT1=
EXTT2=
EXTT3=
EXTT4=
EXTT5=
EXTT6=
EXTT7=
EXTT8=
EXTT9=
EXTT10=
EXTT11=
EXTT12=
EXTT13=
EXTT14=
EXTT15=
EXTT16=
PLAYORDER=
